<?xml version="1.0" encoding="utf-8"?>
<!-- Generator: Adobe Illustrator 23.0.3, SVG Export Plug-In . SVG Version: 6.00 Build 0)  -->
<svg version="1.1" id="Layer_1" xmlns="http://www.w3.org/2000/svg" xmlns:xlink="http://www.w3.org/1999/xlink" x="0px" y="0px"
	 viewBox="0 0 1250 800" style="enable-background:new 0 0 1250 800;" xml:space="preserve">
<style type="text/css">
	.st0{fill:#999999;stroke:#000000;stroke-width:0.9759;stroke-miterlimit:10;}
	.st1{fill:#333333;}
	.st2{fill:none;stroke:#FFFFFF;stroke-width:8.7811;stroke-miterlimit:10;}
	.st3{display:none;}
	.st4{display:inline;}
</style>
<g>
	<path class="st0" d="M0-0.1v799.2h309.4c102.6,0,205.3,0,307.9,0H1250V-0.1H0z"/>
	<path class="st1" d="M471.6,799.6c26.8,0,53.7,0,80.5,0C723.7,533.2,895.4,266.8,1067,0.4c-98.5-0.3-196.9-0.5-295.4-0.8
		C599.1,266.3,426.5,533,253.8,799.6C326.4,799.6,399,799.6,471.6,799.6z"/>
	<line class="st2" x1="4.6" y1="798.6" x2="4.6" y2="225.2"/>
	<line class="st2" x1="28.4" y1="798.6" x2="28.4" y2="462.5"/>
	<line class="st2" x1="53.1" y1="798.6" x2="53.1" y2="279.3"/>
	<line class="st2" x1="77.8" y1="798.6" x2="77.8" y2="247"/>
	<line class="st2" x1="101.5" y1="798.6" x2="101.5" y2="361.5"/>
	<line class="st2" x1="140.9" y1="798.6" x2="140.9" y2="166.9"/>
	<line class="st2" x1="161.9" y1="798.6" x2="161.9" y2="258.5"/>
	<line class="st2" x1="188.4" y1="798.6" x2="188.4" y2="350.1"/>
	<line class="st2" x1="215" y1="798.6" x2="215" y2="407.3"/>
	<line class="st2" x1="240.6" y1="798.6" x2="240.6" y2="567.6"/>
	<line class="st2" x1="1244.1" y1="0.4" x2="1244.1" y2="447.9"/>
	<line class="st2" x1="1224.8" y1="0.4" x2="1224.8" y2="336.5"/>
	<line class="st2" x1="1196.5" y1="0.4" x2="1196.5" y2="267.9"/>
	<line class="st2" x1="1166.3" y1="0.4" x2="1166.3" y2="483.3"/>
	<line class="st2" x1="1137" y1="0.4" x2="1137" y2="380.2"/>
	<line class="st2" x1="1114.2" y1="0.4" x2="1114.2" y2="185.6"/>
	<line class="st2" x1="1091.3" y1="0.4" x2="1091.3" y2="311.6"/>
</g>
<g class="st3">
	<g class="st4">
		
			<image style="overflow:visible;enable-background:new    ;" width="624" height="260" id="YgaZxc" xlink:href="C606BCABCA81C4D3.jpeg"  transform="matrix(1 0 0 1 -93 -425)">
		</image>
	</g>
</g>
</svg>
