<?xml version="1.0" encoding="utf-8"?>
<!-- Generator: Adobe Illustrator 21.1.0, SVG Export Plug-In . SVG Version: 6.00 Build 0)  -->
<svg version="1.1" id="Layer_1" xmlns="http://www.w3.org/2000/svg" xmlns:xlink="http://www.w3.org/1999/xlink" x="0px" y="0px"
	 viewBox="0 0 359 387" style="enable-background:new 0 0 359 387;" xml:space="preserve">
<g>
	<path d="M174.1,338.5c-14.9-15.5-29.6-30.3-43.7-45.7C110.6,271,90.8,249.1,72,226.5c-16.9-20.3-29.8-43.2-37-68.7
		c-5.3-19-7.4-38.8-0.3-57.8c18.1-48.3,72.7-64.7,112.9-31c10.1,8.5,18.4,19,27,28.1c7.4-8,15.5-17.8,24.7-26.4
		c15.8-14.8,35.2-21.7,56.6-18.9c25.7,3.4,44.2,18.1,55.4,41.5c8.4,17.5,8.1,36,4.6,54.5c-6.8,35.4-25.6,64.7-49.1,91
		c-29.5,33-60.1,65.1-90.2,97.6C176,337,175.3,337.4,174.1,338.5z"/>
</g>
</svg>
